<svg style="position: absolute; width: 0; height: 0; overflow: hidden;" version="1.1" xmlns="http://www.w3.org/2000/svg" xmlns:xlink="http://www.w3.org/1999/xlink">
<symbol id="building" viewBox="0 0 16 16">
<path fill-rule="evenodd" clip-rule="evenodd" d="M14 0H2V16H6V12H10V16H14V0ZM5 3H7V5H5V3ZM7 7H5V9H7V7ZM9 3H11V5H9V3ZM11 7H9V9H11V7Z"/>

</symbol>
<symbol id="cutlery-spoon" viewBox="-51.2 -51.2 614.40 614.40">
  <path fill="var(--color-1)" d="M509.539,89.155c-3.28-3.28-8.596-3.28-11.878,0l-98.409,98.409l-12.354-12.354l98.409-98.409 c3.28-3.28,3.28-8.596,0-11.878c-3.28-3.28-8.596-3.28-11.878,0l-98.409,98.409l-12.354-12.354l98.409-98.409 c3.28-3.28,3.28-8.596,0-11.878c-3.28-3.28-8.596-3.28-11.878,0L350.788,139.1l-12.354-12.354l98.409-98.409 c3.28-3.28,3.28-8.596,0-11.878c-3.28-3.28-8.596-3.28-11.878,0L302.8,138.624c-18.412,18.412-22.297,45.835-11.68,68.063 L42.115,427.7c-0.835,0.709-1.651,1.452-2.44,2.24c-15.571,15.569-15.571,40.815,0,56.384c15.571,15.569,40.815,15.569,56.384,0 c0.788-0.788,1.531-1.605,2.24-2.44l221.012-249.005c22.228,10.616,49.653,6.73,68.064-11.68l122.164-122.165 C512.819,97.754,512.819,92.436,509.539,89.155z"/> 
<polygon fill="var(--color-2)" points="263.522,297.734 226.03,264.458 190.571,295.931 227.847,337.927 "/> <path fill="var(--color-3)" d="M181.559,101.034C122.764,42.24,50.839,25.011,17.105,58.747S0.598,164.405,59.394,223.198 c28.865,28.865,73.065,33.009,106.36,12.478l220.305,248.208c0.709,0.835,1.452,1.651,2.24,2.44 c15.569,15.569,40.815,15.569,56.384,0c15.569-15.571,15.569-40.814,0-56.384c-0.788-0.788-1.603-1.531-2.44-2.24L194.034,207.395 C214.567,174.1,210.424,129.9,181.559,101.034z"/> <path fill="var(--color-4)" d="M198.613,198.905c0.109-0.23,0.224-0.458,0.33-0.69c0.148-0.311,0.282-0.631,0.428-0.945 c14.132-31.725,8.213-70.211-17.812-96.235c-1.06-1.059-2.126-2.102-3.194-3.136c7.349,13.019,11.559,28.044,11.559,44.06 c0,49.603-40.211,89.814-89.814,89.814c-15.65,0-30.354-4.02-43.166-11.06c0.809,0.83,1.624,1.66,2.45,2.485 c27.752,27.752,69.676,32.639,102.459,14.729C177.726,228.976,190.609,215.352,198.613,198.905z"/>

</symbol>
<symbol id="delivery" viewBox="0 0 24 24">
<path fill="var(--color-1)" d="M9.56443 8.73049L10.0789 10.5926C10.5639 12.3481 10.8064 13.2259 11.5194 13.6252C12.2323 14.0244 13.1374 13.7892 14.9474 13.3188L16.8673 12.8199C18.6774 12.3495 19.5824 12.1143 19.9941 11.4227C20.4057 10.7312 20.1632 9.85344 19.6782 8.09788L19.1638 6.2358C18.6788 4.48023 18.4363 3.60244 17.7233 3.20319C17.0103 2.80394 16.1052 3.03915 14.2952 3.50955L12.3753 4.00849C10.5652 4.47889 9.66021 4.71409 9.24856 5.40562C8.83692 6.09714 9.07943 6.97493 9.56443 8.73049Z"/>
<path fill="var(--color-3)" d="M2.27749 5.24694C2.38823 4.84781 2.80157 4.61402 3.2007 4.72476L4.9044 5.19744C5.82129 5.45183 6.5469 6.15866 6.80003 7.07489L8.95106 14.8609L9.10935 15.4075C9.74249 15.6438 10.2863 16.0866 10.6314 16.6747L10.9414 16.579L19.8115 14.2739C20.2124 14.1697 20.6219 14.4102 20.7261 14.8111C20.8303 15.212 20.5897 15.6214 20.1888 15.7256L11.3515 18.0223L11.0228 18.1238C11.0161 19.3947 10.1392 20.5555 8.81236 20.9003C7.22189 21.3136 5.58709 20.3982 5.16092 18.8556C4.73476 17.313 5.67861 15.7274 7.26908 15.3141C7.3479 15.2936 7.42682 15.2764 7.5057 15.2623L5.35419 7.47433C5.24592 7.08242 4.92897 6.76092 4.50338 6.64284L2.79968 6.17016C2.40054 6.05942 2.16675 5.64608 2.27749 5.24694Z"/>

</symbol>

<symbol id="facebook" viewBox="0 0 24 24">
<path d="M12 2.03998C6.5 2.03998 2 6.52998 2 12.06C2 17.06 5.66 21.21 10.44 21.96V14.96H7.9V12.06H10.44V9.84998C10.44 7.33998 11.93 5.95998 14.22 5.95998C15.31 5.95998 16.45 6.14998 16.45 6.14998V8.61998H15.19C13.95 8.61998 13.56 9.38998 13.56 10.18V12.06H16.34L15.89 14.96H13.56V21.96C15.9164 21.5878 18.0622 20.3855 19.6099 18.57C21.1576 16.7546 22.0054 14.4456 22 12.06C22 6.52998 17.5 2.03998 12 2.03998Z"/>

</symbol>
<symbol id="instagram" viewBox="0 0 24 24"><path fill-rule="evenodd" clip-rule="evenodd" d="M11.9962 0.0078125C8.73824 0.0078125 8.32971 0.021622 7.05019 0.080003C5.77333 0.138241 4.90129 0.341051 4.13824 0.637622C3.34938 0.944146 2.68038 1.35434 2.01343 2.02124C1.34652 2.68819 0.936333 3.35719 0.629809 4.14605C0.333238 4.9091 0.130429 5.78115 0.0721905 7.058C0.0138095 8.33753 0 8.74605 0 12.0041C0 15.262 0.0138095 15.6705 0.0721905 16.9501C0.130429 18.2269 0.333238 19.099 0.629809 19.862C0.936333 20.6509 1.34652 21.3199 2.01343 21.9868C2.68038 22.6537 3.34938 23.0639 4.13824 23.3705C4.90129 23.667 5.77333 23.8698 7.05019 23.9281C8.32971 23.9864 8.73824 24.0002 11.9962 24.0002C15.2542 24.0002 15.6627 23.9864 16.9422 23.9281C18.2191 23.8698 19.0911 23.667 19.8542 23.3705C20.643 23.0639 21.312 22.6537 21.979 21.9868C22.6459 21.3199 23.0561 20.6509 23.3627 19.862C23.6592 19.099 23.862 18.2269 23.9202 16.9501C23.9786 15.6705 23.9924 15.262 23.9924 12.0041C23.9924 8.74605 23.9786 8.33753 23.9202 7.058C23.862 5.78115 23.6592 4.9091 23.3627 4.14605C23.0561 3.35719 22.6459 2.68819 21.979 2.02124C21.312 1.35434 20.643 0.944146 19.8542 0.637622C19.0911 0.341051 18.2191 0.138241 16.9422 0.080003C15.6627 0.021622 15.2542 0.0078125 11.9962 0.0078125ZM7.99748 12.0041C7.99748 14.2125 9.78776 16.0028 11.9962 16.0028C14.2047 16.0028 15.995 14.2125 15.995 12.0041C15.995 9.79557 14.2047 8.00529 11.9962 8.00529C9.78776 8.00529 7.99748 9.79557 7.99748 12.0041ZM5.836 12.0041C5.836 8.60181 8.594 5.84381 11.9962 5.84381C15.3984 5.84381 18.1564 8.60181 18.1564 12.0041C18.1564 15.4062 15.3984 18.1642 11.9962 18.1642C8.594 18.1642 5.836 15.4062 5.836 12.0041ZM18.3998 7.03996C19.1949 7.03996 19.8394 6.39548 19.8394 5.60043C19.8394 4.80538 19.1949 4.16086 18.3998 4.16086C17.6048 4.16086 16.9603 4.80538 16.9603 5.60043C16.9603 6.39548 17.6048 7.03996 18.3998 7.03996Z"/>
</symbol>
<symbol id="linkedin" viewBox="0 0 24 24"><path fill-rule="evenodd" clip-rule="evenodd" d="M22.2857 0H1.70893C0.766071 0 0 0.776786 0 1.73036V22.2696C0 23.2232 0.766071 24 1.70893 24H22.2857C23.2286 24 24 23.2232 24 22.2696V1.73036C24 0.776786 23.2286 0 22.2857 0ZM7.25357 20.5714H3.69643V9.11786H7.25893V20.5714H7.25357ZM5.475 7.55357C4.33393 7.55357 3.4125 6.62679 3.4125 5.49107C3.4125 4.35536 4.33393 3.42857 5.475 3.42857C6.61071 3.42857 7.5375 4.35536 7.5375 5.49107C7.5375 6.63214 6.61607 7.55357 5.475 7.55357ZM20.5875 20.5714H17.0304V15C17.0304 13.6714 17.0036 11.9625 15.1821 11.9625C13.3286 11.9625 13.0446 13.4089 13.0446 14.9036V20.5714H9.4875V9.11786H12.9V10.6821H12.9482C13.425 9.78214 14.5875 8.83393 16.3179 8.83393C19.9179 8.83393 20.5875 11.2071 20.5875 14.2929V20.5714Z" />
</symbol>
<symbol id="twitter" viewBox="0 -2 24 24"><path fill-rule="evenodd" clip-rule="evenodd" d="M7.54752 20C16.6042 20 21.5578 12.3048 21.5578 5.63156C21.5578 5.41299 21.5578 5.19541 21.5434 4.97881C22.507 4.26394 23.3389 3.37881 24 2.36484C23.1013 2.77324 22.148 3.04106 21.1718 3.15937C22.1998 2.52826 22.9691 1.53563 23.3366 0.36622C22.3701 0.95444 21.3126 1.36899 20.2099 1.59198C18.6836 -0.0725 16.2583 -0.47988 14.294 0.59826C12.3296 1.6764 11.3148 3.97194 11.8186 6.19768C7.85942 5.99412 4.1707 4.0763 1.6704 0.9215C0.363478 3.22892 1.03103 6.1808 3.19488 7.66268C2.41127 7.63886 1.64475 7.42207 0.96 7.0306C0.96 7.05128 0.96 7.07294 0.96 7.09459C0.960641 9.4985 2.61288 11.5689 4.9104 12.0449C4.18547 12.2476 3.42488 12.2773 2.68704 12.1315C3.33211 14.1887 5.18071 15.5979 7.28736 15.6385C5.54375 17.0438 3.38982 17.8068 1.17216 17.8045C0.780387 17.8037 0.388996 17.7794 0 17.7316C2.25181 19.2136 4.87192 19.9997 7.54752 19.9961" />
</symbol>
<symbol id="quotes" viewBox="0 0 24 24">
  <path d="M4.583 17.321C3.553 16.227 3 15 3 13.011c0-3.5 2.457-6.637 6.03-8.188l.893 1.378c-3.335 1.804-3.987 4.145-4.247 5.621.537-.278 1.24-.375 1.929-.311 1.804.167 3.226 1.648 3.226 3.489a3.5 3.5 0 0 1-3.5 3.5c-1.073 0-2.099-.49-2.748-1.179zm10 0C13.553 16.227 13 15 13 13.011c0-3.5 2.457-6.637 6.03-8.188l.893 1.378c-3.335 1.804-3.987 4.145-4.247 5.621.537-.278 1.24-.375 1.929-.311 1.804.167 3.226 1.648 3.226 3.489a3.5 3.5 0 0 1-3.5 3.5c-1.073 0-2.099-.49-2.748-1.179z"/>
</symbol>
<symbol id="full-star" viewBox="0 0 36 36"><path class="clr-i-solid clr-i-solid-path-1" d="M34,16.78a2.22,2.22,0,0,0-1.29-4l-9-.34a.23.23,0,0,1-.2-.15L20.4,3.89a2.22,2.22,0,0,0-4.17,0l-3.1,8.43a.23.23,0,0,1-.2.15l-9,.34a2.22,2.22,0,0,0-1.29,4l7.06,5.55a.23.23,0,0,1,.08.24L7.35,31.21a2.22,2.22,0,0,0,3.38,2.45l7.46-5a.22.22,0,0,1,.25,0l7.46,5a2.2,2.2,0,0,0,2.55,0,2.2,2.2,0,0,0,.83-2.4l-2.45-8.64a.22.22,0,0,1,.08-.24Z"></path></symbol>
<symbol id="half-star" viewBox="0 0 36 36"><path d="M34,16.78a2.22,2.22,0,0,0-1.29-4l-9-.34a.23.23,0,0,1-.2-.15L20.4,3.89a2.22,2.22,0,0,0-4.17,0l-3.1,8.43a.23.23,0,0,1-.2.15l-9,.34a2.22,2.22,0,0,0-1.29,4l7.06,5.55a.23.23,0,0,1,.08.24L7.35,31.21a2.22,2.22,0,0,0,3.38,2.45l7.46-5a.22.22,0,0,1,.25,0l7.46,5a2.2,2.2,0,0,0,2.55,0,2.2,2.2,0,0,0,.83-2.4l-2.45-8.64a.22.22,0,0,1,.08-.24ZM24.9,23.11l2.45,8.64A.22.22,0,0,1,27,32l-7.46-5a2.21,2.21,0,0,0-1.24-.38h0V4.44h0a.2.2,0,0,1,.21.15L21.62,13a2.22,2.22,0,0,0,2,1.46l9,.34a.22.22,0,0,1,.13.4l-7.06,5.55A2.21,2.21,0,0,0,24.9,23.11Z"></path></symbol>
</svg>